/* XPM */
static char * cube_xpm[] = {
"20 20 4 1",
" 	c None",
".	c #B6E046",
"+	c #E04646",
"@	c #6046E0",
"        ....        ",
"      ........      ",
"    ............    ",
"  ................  ",
"....................",
"++................@@",
"++++............@@@@",
"++++++........@@@@@@",
"++++++++....@@@@@@@@",
"++++++++++@@@@@@@@@@",
"++++++++++@@@@@@@@@@",
"++++++++++@@@@@@@@@@",
"++++++++++@@@@@@@@@@",
"++++++++++@@@@@@@@@@",
"++++++++++@@@@@@@@@@",
"++++++++++@@@@@@@@@@",
"  ++++++++@@@@@@@@  ",
"    ++++++@@@@@@    ",
"      ++++@@@@      ",
"        ++@@        "};
