/* XPM */
static char * fish_xpm[] = {
"8 7 2 1",
" 	c #FFFFFF",
".	c #000000",
"     .  ",
".  . .. ",
" . . . .",
" .......",
" . . ...",
".  . .. ",
"     .  "};
